<svg
  width="180"
  height="180"
  viewBox="0 0 180 180"
  fill="none"
  xmlns="http://www.w3.org/2000/svg"
>
  <!-- Background circle with Apple Music red -->
  <circle
    cx="90"
    cy="90"
    r="90"
    fill="#fa243c"
  />

  <!-- Music note paths (scaled for 180x180) -->
  <path
    d="M67.5 142.5C67.5 154.93 57.93 164.5 45.5 164.5C33.07 164.5 23.5 154.93 23.5 142.5C23.5 130.07 33.07 120.5 45.5 120.5C57.93 120.5 67.5 130.07 67.5 142.5Z"
    stroke="white"
    stroke-width="11.25"
  />
  <path
    d="M157.5 127.5C157.5 139.93 147.93 149.5 135.5 149.5C123.07 149.5 113.5 139.93 113.5 127.5C113.5 115.07 123.07 105.5 135.5 105.5C147.93 105.5 157.5 115.07 157.5 127.5Z"
    stroke="white"
    stroke-width="11.25"
  />
  <path
    d="M67.5 142.5V60"
    stroke="white"
    stroke-width="11.25"
  />
  <path
    d="M151.875 82.5C151.875 88.125 156.375 92.625 162 92.625C167.625 92.625 172.125 88.125 172.125 82.5H151.875ZM172.125 82.5V45H151.875V82.5H172.125Z"
    fill="white"
  />
  <path
    d="M118.125 28.125L100.125 35.625C88.125 38.0625 84.375 39.2813 82.3125 42.1875C80.25 45.0938 80.25 49.2188 80.25 57.4688V90L162 60V57.375C162 41.625 162 19.125 152.8125 10.6875C143.625 2.25 126.375 6.75 118.125 28.125Z"
    stroke="white"
    stroke-width="11.25"
    stroke-linecap="round"
  />
</svg>