<svg
  width="32"
  height="32"
  viewBox="0 0 32 32"
  fill="none"
  xmlns="http://www.w3.org/2000/svg"
>
  <!-- Background circle with Apple Music red -->
  <circle
    cx="16"
    cy="16"
    r="16"
    fill="#fa243c"
  />

  <!-- Music note paths (scaled and colored white) -->
  <path
    d="M12 25.33C12 27.54 10.21 29.33 8 29.33C5.79 29.33 4 27.54 4 25.33C4 23.12 5.79 21.33 8 21.33C10.21 21.33 12 23.12 12 25.33Z"
    stroke="white"
    stroke-width="2"
  />
  <path
    d="M28 22.67C28 24.88 26.21 26.67 24 26.67C21.79 26.67 20 24.88 20 22.67C20 20.46 21.79 18.67 24 18.67C26.21 18.67 28 20.46 28 22.67Z"
    stroke="white"
    stroke-width="2"
  />
  <path
    d="M12 25.33V10.67"
    stroke="white"
    stroke-width="2"
  />
  <path
    d="M27 14.67C27 15.22 27.45 15.67 28 15.67C28.55 15.67 29 15.22 29 14.67H27ZM29 14.67V8H27V14.67H29Z"
    fill="white"
  />
  <path
    d="M21 5L17 6.33C15.68 6.77 15.01 6.99 14.63 7.51C14.25 8.03 14.25 8.73 14.25 10.12V16L28 10.67V10.22C28 7.69 28 6.42 27.17 5.82C26.34 5.22 25.14 5.62 21 5Z"
    stroke="white"
    stroke-width="2"
    stroke-linecap="round"
  />
</svg>