<svg
  width="16"
  height="16"
  viewBox="0 0 16 16"
  fill="none"
  xmlns="http://www.w3.org/2000/svg"
>
  <!-- Background circle -->
  <circle
    cx="8"
    cy="8"
    r="8"
    fill="#0ea5e9"
  />

  <!-- Music note -->
  <path
    d="M6 4C6 3.44772 6.44772 3 7 3H9C9.55228 3 10 3.44772 10 4V10C10 10.5523 9.55228 11 9 11H7C6.44772 11 6 10.5523 6 10V4Z"
    fill="white"
  />

  <!-- Note stem -->
  <rect
    x="9.5"
    y="4"
    width="1"
    height="6"
    fill="white"
  />

  <!-- Note flag -->
  <path
    d="M10.5 4C10.5 4 11.5 4.5 12.5 3.5C13.5 2.5 12.5 1.5 11.5 2.5C10.5 3.5 10.5 4 10.5 4Z"
    fill="white"
  />

  <!-- Musical staff lines -->
  <line
    x1="4"
    y1="12"
    x2="12"
    y2="12"
    stroke="white"
    stroke-width="0.5"
    opacity="0.6"
  />
  <line
    x1="4"
    y1="13"
    x2="12"
    y2="13"
    stroke="white"
    stroke-width="0.5"
    opacity="0.6"
  />
  <line
    x1="4"
    y1="14"
    x2="12"
    y2="14"
    stroke="white"
    stroke-width="0.5"
    opacity="0.6"
  />
</svg>