<svg
  width="32"
  height="32"
  viewBox="0 0 32 32"
  fill="none"
  xmlns="http://www.w3.org/2000/svg"
>
  <!-- Background circle -->
  <circle
    cx="16"
    cy="16"
    r="16"
    fill="#0ea5e9"
  />

  <!-- Music note -->
  <path
    d="M12 8C12 6.89543 12.8954 6 14 6H18C19.1046 6 20 6.89543 20 8V20C20 21.1046 19.1046 22 18 22H14C12.8954 22 12 21.1046 12 20V8Z"
    fill="white"
  />

  <!-- Note stem -->
  <rect
    x="19"
    y="8"
    width="2"
    height="12"
    fill="white"
  />

  <!-- Note flag -->
  <path
    d="M21 8C21 8 23 9 25 7C27 5 25 3 23 5C21 7 21 8 21 8Z"
    fill="white"
  />

  <!-- Musical staff lines -->
  <line
    x1="8"
    y1="24"
    x2="24"
    y2="24"
    stroke="white"
    stroke-width="1"
    opacity="0.6"
  />
  <line
    x1="8"
    y1="26"
    x2="24"
    y2="26"
    stroke="white"
    stroke-width="1"
    opacity="0.6"
  />
  <line
    x1="8"
    y1="28"
    x2="24"
    y2="28"
    stroke="white"
    stroke-width="1"
    opacity="0.6"
  />
</svg>