<svg
  width="16"
  height="16"
  viewBox="0 0 16 16"
  fill="none"
  xmlns="http://www.w3.org/2000/svg"
>
  <!-- Background circle with Apple Music red -->
  <circle
    cx="8"
    cy="8"
    r="8"
    fill="#fa243c"
  />

  <!-- Music note paths (scaled for 16x16) -->
  <path
    d="M6 12.67C6 13.77 5.1 14.67 4 14.67C2.9 14.67 2 13.77 2 12.67C2 11.57 2.9 10.67 4 10.67C5.1 10.67 6 11.57 6 12.67Z"
    stroke="white"
    stroke-width="1"
  />
  <path
    d="M14 11.33C14 12.43 13.1 13.33 12 13.33C10.9 13.33 10 12.43 10 11.33C10 10.23 10.9 9.33 12 9.33C13.1 9.33 14 10.23 14 11.33Z"
    stroke="white"
    stroke-width="1"
  />
  <path
    d="M6 12.67V5.33"
    stroke="white"
    stroke-width="1"
  />
  <path
    d="M13.5 7.33C13.5 7.61 13.72 7.83 14 7.83C14.28 7.83 14.5 7.61 14.5 7.33H13.5ZM14.5 7.33V4H13.5V7.33H14.5Z"
    fill="white"
  />
  <path
    d="M10.5 2.5L8.5 3.17C7.84 3.39 7.51 3.5 7.32 3.76C7.13 4.02 7.13 4.37 7.13 5.06V8L14 5.33V5.11C14 3.85 14 3.21 13.59 2.91C13.18 2.61 12.57 2.81 10.5 2.5Z"
    stroke="white"
    stroke-width="1"
    stroke-linecap="round"
  />
</svg>